# xmcd
#
# Track frame offsets:
#	150
#	21150
#	35671
#	53933
#	64886
#	84959
#	97533
#	110682
#	122814
#	134375
#	151181
#	164957
#	180969
#	194947
#
# Disc length: 2756 seconds
#
# Revision: 1
# Processed by: cddbd v1.5.2PL0 Copyright (c) Steve Scherf et al.
# Submitted via: audiograbber 1.83.01
#
DISCID=c00ac20e
DTITLE=Alan Ladd - Country Roads Disc 2
DYEAR=2008
DGENRE=Country
TTITLE0=Ghost riders in the sky
TTITLE1=Words
TTITLE2=She believes in me
TTITLE3=Bye bye love
TTITLE4=Streets of London
TTITLE5=Have I told you lately that I love you
TTITLE6=Blue Train
TTITLE7=Ballad of the green beret
TTITLE8=Moonlight and roses
TTITLE9=Mull of Kintyre
TTITLE10=Beautiful Sunday
TTITLE11=Oh misery
TTITLE12=We should be together now
TTITLE13=Jambalaya
EXTD=
EXTT0=
EXTT1=
EXTT2=
EXTT3=
EXTT4=
EXTT5=
EXTT6=
EXTT7=
EXTT8=
EXTT9=
EXTT10=
EXTT11=
EXTT12=
EXTT13=
PLAYORDER=
